<?xml version="1.0" encoding="utf-8"?>
<!-- Generator: Adobe Illustrator 25.2.0, SVG Export Plug-In . SVG Version: 6.00 Build 0)  -->
<svg version="1.1" id="Ebene_1" xmlns="http://www.w3.org/2000/svg" xmlns:xlink="http://www.w3.org/1999/xlink" x="0px" y="0px"
	 viewBox="0 0 652 410" style="enable-background:new 0 0 652 410;" xml:space="preserve">
<style type="text/css">
	.st0{stroke:#000000;stroke-miterlimit:10;}
	.st1{stroke:#000000;}
	.st2{fill:#FFFFFF;stroke:#000000;}
	.st3{fill:none;stroke:#000000;stroke-miterlimit:10;}
	.st4{fill:#FFFFFF;stroke:#000000;stroke-linejoin:round;stroke-miterlimit:10;}
	.st5{fill:#FFFFFF;stroke:#000000;stroke-miterlimit:10;}
	.st6{fill:none;stroke:#000000;}
</style>
<g>
	<path pointer-events="all" class="st0" d="M0.5,401.5V0.5h346v10h-336v391H0.5z"/>
	<rect x="5.5" y="241.5" pointer-events="all" class="st1" width="122" height="10"/>
	<rect x="177.5" y="241.5" pointer-events="all" class="st1" width="10" height="150"/>
	<rect x="5.5" y="177.5" pointer-events="all" class="st1" width="218" height="10"/>
	<rect x="214" y="80.5" pointer-events="all" class="st1" width="10" height="107"/>
	<rect x="223.5" y="86.5" pointer-events="all" class="st1" width="123" height="10"/>
	<rect x="214" y="10.5" pointer-events="all" class="st1" width="10" height="36"/>
	<rect x="259" y="142.5" pointer-events="all" class="st1" width="10" height="45"/>
	<rect x="76.5" y="0.5" pointer-events="all" class="st2" width="63" height="10"/>
	<path pointer-events="all" class="st3" d="M76.5,5.5h63"/>
	<path pointer-events="all" class="st0" d="M391.5,402.5H0.5v-105h10v95h381V402.5z"/>
	<rect x="242.5" y="392.5" pointer-events="all" class="st2" width="63" height="10"/>
	<path pointer-events="all" class="st3" d="M305.5,397.5h-63"/>
	<rect x="58.5" y="392.5" pointer-events="all" class="st2" width="63" height="10"/>
	<path pointer-events="all" class="st3" d="M121.5,397.5h-63"/>
	<rect x="127.5" y="241.5" pointer-events="all" class="st2" width="33" height="5"/>
	<path pointer-events="all" class="st3" d="M127.5,246.5c0,18.2,14.8,33,33,33v-33"/>
	<rect x="160.5" y="241.5" pointer-events="all" class="st1" width="43" height="10"/>
	<rect x="203.5" y="241.5" pointer-events="all" class="st2" width="33" height="5"/>
	<path pointer-events="all" class="st3" d="M236.5,246.5c0,18.2-14.8,33-33,33v-33"/>
	<rect x="349.5" y="241.5" pointer-events="all" class="st1" width="10" height="150"/>
	<rect x="237.5" y="241.5" pointer-events="all" class="st1" width="122" height="10"/>
	<rect x="391.5" y="396.5" pointer-events="all" class="st2" width="33" height="5"/>
	<path pointer-events="all" class="st3" d="M424.5,396.5c0-18.2-14.8-33-33-33v33"/>
	<rect x="362.5" y="242.5" pointer-events="all" class="st2" width="22" height="147"/>
	<path pointer-events="all" class="st0" d="M651.5,178.5v224h-227v-10h217v-214H651.5z"/>
	<rect x="502.5" y="392.5" pointer-events="all" class="st2" width="63" height="10"/>
	<path pointer-events="all" class="st3" d="M565.5,397.5h-63"/>
	<path pointer-events="all" class="st4" d="M574.2,336.1l11.1,5.8c1.7,0.8,2.7,2.5,2.6,4.4c-2.5,5-5.7,9.5-9.5,13.5
		c-1.7,0.7-3.7,0.4-5-0.9l-9.2-8.4c-0.9-1-0.9-2.9,0-4.5l5.8-8.3C571.1,336.2,572.9,335.5,574.2,336.1z M563.8,346.3l-4.3,0.4
		 M565.6,343.8l-3.6-1.4 M567.7,340.8l-2.4-3.1 M569.4,338.3l-0.9-4.4 M569.2,333.3c-3.9,4.1-7.2,8.9-9.8,14l-3.1,0.8
		c3-6.7,7.3-12.9,12.6-18L569.2,333.3z"/>
	<path pointer-events="all" class="st5" d="M588.3,319.9l46,32.2c4.3,5,4.7,12.2,1,17.5c-3.7,5.3-10.6,7.4-16.8,5.1
		c-13.2-4-27.4-1.4-38,7c-2.9,2.1-7.7,2-12.4-0.3l-15.3-10.7L588.3,319.9z"/>
	
		<rect x="541.9" y="344.1" pointer-events="all" transform="matrix(0.5736 -0.8192 0.8192 0.5736 -39.8796 617.1801)" class="st6" width="62" height="5.6"/>
	<polygon pointer-events="all" class="st6" points="643.2,358.3 643.2,358.3 643.2,358.3 	"/>
	<path pointer-events="all" class="st3" d="M592.1,324.2l-4.6-3.2 M590.6,326.5l-4.6-3.2 M589,328.8l-4.6-3.2 M587.4,331l-4.6-3.2
		 M585.8,333.3l-4.6-3.2 M584.2,335.5l-4.6-3.2 M582.7,337.8l-4.6-3.2 M581.1,340l-4.6-3.2 M579.5,342.3l-4.6-3.2 M591.4,325.4
		l-4.6-3.2 M589.8,327.6l-4.6-3.2 M588.2,329.9l-4.6-3.2 M586.6,332.1l-4.6-3.2 M585,334.4l-4.6-3.2 M583.5,336.6l-4.6-3.2
		 M581.9,338.9l-4.6-3.2 M580.3,341.2l-4.6-3.2 M578.7,343.4l-4.6-3.2 M577.9,344.6l-4.6-3.2 M576.3,346.8l-4.6-3.2 M574.8,349.1
		l-4.6-3.2 M573.2,351.3l-4.6-3.2 M571.6,353.6l-4.6-3.2 M570,355.8l-4.6-3.2 M568.4,358.1l-4.6-3.2 M566.9,360.4l-4.6-3.2
		 M565.3,362.6l-4.6-3.2 M577.1,345.7l-4.6-3.2 M575.5,347.9l-4.6-3.2 M574,350.2l-4.6-3.2 M572.4,352.5l-4.6-3.2 M570.8,354.7
		l-4.6-3.2 M569.2,357l-4.6-3.2 M567.6,359.2l-4.6-3.2 M566.1,361.5l-4.6-3.2 M564.5,363.7l-4.6-3.2 M563.7,364.9l-4.6-3.2
		 M562.1,367.1l-4.6-3.2 M560.5,369.4l-4.6-3.2 M559,371.6l-4.6-3.2 M562.9,366l-4.6-3.2 M561.3,368.3l-4.6-3.2 M559.7,370.5
		l-4.6-3.2 M558.2,372.8l-4.6-3.2"/>
	<path pointer-events="all" class="st4" d="M511.7,254.3l1.8,14.6c0.3,2.1-0.6,4.3-2.4,5.5c-6.1,1-12.4,1-18.5,0
		c-1.8-1.2-2.7-3.3-2.4-5.5l1.8-14.6c0.3-1.6,2-2.9,4.2-3.1h11.3C509.6,251.5,511.3,252.7,511.7,254.3z M495.7,251.3l-3.1-3.9
		 M499.1,251.3l-1-4.4 M503.2,251.3l1.4-4.4 M506.6,251.3l3.4-3.9 M511,247.6c-6.3-1-12.8-1-19,0l-2.7-2.4c8.1-1.7,16.4-1.7,24.5,0
		L511,247.6z"/>
	<path pointer-events="all" class="st4" d="M491.3,318.7l-1.8-14.6c-0.3-2.1,0.6-4.3,2.4-5.5c6.1-1,12.4-1,18.5,0
		c1.8,1.2,2.7,3.3,2.4,5.5l-1.8,14.6c-0.3,1.6-2,2.9-4.2,3.1h-11.3C493.4,321.5,491.7,320.3,491.3,318.7z M507.3,321.7l3.1,3.9
		 M503.9,321.7l1,4.4 M499.8,321.7l-1.4,4.4 M496.4,321.7l-3.4,3.9 M492,325.4c6.3,1,12.8,1,19,0l2.7,2.4c-8.1,1.7-16.4,1.7-24.5,0
		L492,325.4z"/>
	<path pointer-events="all" class="st4" d="M469.3,276.3l14.6-1.8c2.1-0.3,4.3,0.6,5.5,2.4c1,6.1,1,12.4,0,18.5
		c-1.2,1.8-3.3,2.7-5.5,2.4l-14.6-1.8c-1.6-0.3-2.9-2-3.1-4.2v-11.3C466.5,278.4,467.7,276.7,469.3,276.3z M466.3,292.3l-3.9,3.1
		 M466.3,288.9l-4.4,1 M466.3,284.8l-4.4-1.4 M466.3,281.4l-3.9-3.4 M462.6,277c-1,6.3-1,12.8,0,19l-2.4,2.7c-1.7-8-1.7-16.4,0-24.5
		L462.6,277z"/>
	<path pointer-events="all" class="st4" d="M533.7,296.7l-14.7,1.8c-2.2,0.4-4.3-0.6-5.5-2.4c-1-6.1-1-12.4,0-18.5
		c1.2-1.8,3.3-2.7,5.5-2.4l14.7,1.8c1.6,0.3,2.9,2,3,4.2v11.3C536.5,294.6,535.3,296.3,533.7,296.7z M536.7,280.7l3.9-3.1
		 M536.7,284.1l4.4-1 M536.7,288.2l4.4,1.4 M536.7,291.6l3.9,3.4 M540.4,296c1-6.3,1-12.7,0-19l2.4-2.7c1.7,8.1,1.7,16.4,0,24.5
		L540.4,296z"/>
	<ellipse pointer-events="all" class="st2" cx="501.5" cy="286.5" rx="30.7" ry="30.7"/>
	<rect x="545.5" y="133.5" pointer-events="all" class="st2" width="95" height="45"/>
	<path pointer-events="all" class="st3" d="M570.5,133.5v45 M595.5,133.5v45"/>
	<path pointer-events="all" class="st3" d="M545.5,156h95 M640.5,133.5L618,156l22.5,22.5 M618,133.5v45 M545.5,156h95"/>
	<rect x="498.5" y="178.5" pointer-events="all" class="st1" width="143" height="10"/>
	<rect x="498.5" y="139.5" pointer-events="all" class="st2" width="5" height="33"/>
	<path pointer-events="all" class="st3" d="M503.5,139.5c18.2,0,33,14.8,33,33h-33"/>
	<rect x="498.5" y="122.5" pointer-events="all" class="st1" width="10" height="17"/>
	<rect x="498.5" y="122.5" pointer-events="all" class="st1" width="153" height="10"/>
	<rect x="641.5" y="133.5" pointer-events="all" class="st1" width="10" height="45"/>
	<path pointer-events="all" class="st2" d="M536.8,7.5h41.4c1.3,0,2.3,1,2.3,2.3v15.4c0,1.3-1,2.3-2.3,2.3h-41.4
		c-1.3,0-2.3-1-2.3-2.3V9.8C534.5,8.5,535.5,7.5,536.8,7.5z"/>
	<path pointer-events="all" class="st6" d="M538.5,13.2h15c0.9,0,1.7,0.8,1.7,1.7v8.6c0,0.9-0.8,1.7-1.7,1.7h-15
		c-0.9,0-1.7-0.8-1.7-1.7v-8.6C536.8,14,537.6,13.2,538.5,13.2z"/>
	<path pointer-events="all" class="st2" d="M557.5,9.2L557.5,9.2c0.6,0,1.1,0.5,1.1,1.1v6.8c0,0.6-0.5,1.1-1.2,1.1h0
		c-0.6,0-1.2-0.5-1.2-1.1v-6.8C556.3,9.7,556.9,9.2,557.5,9.2z"/>
	<path pointer-events="all" class="st6" d="M557.5,9.2L557.5,9.2c0.6,0,1.1,0.5,1.1,1.1v4c0,0.6-0.5,1.1-1.2,1.1h0
		c-0.6,0-1.2-0.5-1.2-1.1v-4C556.3,9.7,556.9,9.2,557.5,9.2z"/>
	<path pointer-events="all" class="st6" d="M561.5,13.2h15c0.9,0,1.7,0.8,1.7,1.7v8.6c0,0.9-0.8,1.7-1.7,1.7h-15
		c-0.9,0-1.7-0.8-1.7-1.7v-8.6C559.8,14,560.6,13.2,561.5,13.2z"/>
	<ellipse pointer-events="all" cx="551.8" cy="17.2" rx="1.4" ry="1.4"/>
	<ellipse pointer-events="all" cx="563.2" cy="17.2" rx="1.4" ry="1.4"/>
	<path pointer-events="all" class="st0" d="M286.5,0.5h365v170h-10v-160h-355V0.5z"/>
	<path pointer-events="all" class="st5" d="M543.5,99.5v-0.8c0-0.4,0.2-0.8,0.7-1c0.5-0.3,1.1-0.4,1.7-0.4h31.2
		c0.6,0,1.2,0.2,1.7,0.4c0.5,0.3,0.7,0.7,0.7,1v0.8H543.5z"/>
	<rect x="543.5" y="100.2" pointer-events="all" class="st2" width="36" height="17.4"/>
	<path pointer-events="all" class="st3" d="M575.9,117.6c0.2,0.5,0,0.9-0.5,1.3c-0.5,0.4-1.2,0.6-2,0.6h-24c-0.8,0-1.5-0.2-2-0.6
		c-0.5-0.4-0.6-0.8-0.5-1.3"/>
	<rect x="548.9" y="96.5" pointer-events="all" class="st2" width="3.6" height="0.7"/>
	<rect x="274.5" y="56.5" pointer-events="all" class="st2" width="72" height="30"/>
	<path pointer-events="all" class="st3" d="M278.5,64c0-2.8,1.8-5,4-5h42c6.6,0,12,4.5,12,10v5c0,5.5-5.4,10-12,10h-42
		c-2.2,0-4-2.2-4-5V64z"/>
	<path pointer-events="all" class="st3" d="M274.5,64.5h0.8c0.6,0,1.2,3.1,1.2,7c0,3.9-0.6,7-1.2,7h-0.8"/>
	<path pointer-events="all" class="st2" d="M276.1,70.5h5.2c0.6,0,1,0.4,1,1l0,0c0,0.6-0.4,1-1,1h-5.2c-0.6,0-1-0.4-1-1l0,0
		C275.1,70.9,275.5,70.5,276.1,70.5z"/>
	<ellipse pointer-events="all" cx="284.5" cy="71.5" rx="1.6" ry="2"/>
	<path pointer-events="all" class="st2" d="M346.5,21.4v21.2c0,0.5-0.4,0.9-0.9,0.9h-4.9c-0.5,0-0.9-0.4-0.9-0.9V21.4
		c0-0.5,0.4-0.9,0.9-0.9h4.9C346.1,20.5,346.5,20.9,346.5,21.4z"/>
	<rect x="332.2" y="24.6" pointer-events="all" class="st2" width="7.6" height="14.7"/>
	<ellipse pointer-events="all" class="st2" cx="327.7" cy="32" rx="11.2" ry="9.2"/>
	<ellipse pointer-events="all" class="st6" cx="326.8" cy="32" rx="6.7" ry="5.5"/>
	<ellipse pointer-events="all" cx="330.4" cy="32" rx="3.1" ry="2.3"/>
	<path pointer-events="all" class="st2" d="M346.5,100.4v21.2c0,0.5-0.4,0.9-0.9,0.9h-4.9c-0.5,0-0.9-0.4-0.9-0.9v-21.2
		c0-0.5,0.4-0.9,0.9-0.9h4.9C346.1,99.5,346.5,99.9,346.5,100.4z"/>
	<rect x="332.2" y="103.6" pointer-events="all" class="st2" width="7.6" height="14.7"/>
	<ellipse pointer-events="all" class="st2" cx="327.7" cy="111" rx="11.2" ry="9.2"/>
	<ellipse pointer-events="all" class="st6" cx="326.8" cy="111" rx="6.7" ry="5.5"/>
	<ellipse pointer-events="all" cx="330.4" cy="111" rx="3.1" ry="2.3"/>
	<rect x="640.5" y="145.5" pointer-events="all" class="st2" width="10" height="25"/>
	<path pointer-events="all" class="st3" d="M645.5,145.5v25"/>
	<rect x="610" y="47" pointer-events="all" class="st2" width="30" height="38"/>
	<ellipse pointer-events="all" class="st6" cx="632.5" cy="78.7" rx="1.5" ry="1.5"/>
	<ellipse pointer-events="all" class="st6" cx="617.5" cy="78.7" rx="2" ry="2"/>
	<ellipse pointer-events="all" class="st6" cx="617.5" cy="53.3" rx="2.5" ry="2.5"/>
	<ellipse pointer-events="all" class="st6" cx="632.5" cy="53.3" rx="3" ry="3"/>
	<path pointer-events="all" class="st3" d="M634.2,76.9l-3.5,3.5 M634.2,80.4l-3.5-3.5 M619.8,76.4l-4.5,4.6 M619.8,81l-4.5-4.6
		 M635.8,50l-6.5,6.6 M635.8,56.6l-6.5-6.6 M620.2,50.5l-5.5,5.6 M620.2,56.1l-5.5-5.6"/>
	<path pointer-events="all" class="st6" d="M637.5,62.5v7.1c0,0.8-0.7,1.5-1.5,1.5h-22c-0.8,0-1.5-0.7-1.5-1.5v-7.1
		c0-0.8,0.7-1.5,1.5-1.5h22C636.8,60.9,637.5,61.6,637.5,62.5z"/>
	<rect x="609" y="49.5" pointer-events="all" class="st2" width="1" height="2.5"/>
	<rect x="609" y="54.1" pointer-events="all" class="st2" width="1" height="2.5"/>
	<rect x="609" y="58.7" pointer-events="all" class="st2" width="1" height="2.5"/>
	<rect x="609" y="63.2" pointer-events="all" class="st2" width="1" height="2.5"/>
	<rect x="609" y="67.8" pointer-events="all" class="st2" width="1" height="2.5"/>
	<rect x="609" y="72.3" pointer-events="all" class="st2" width="1" height="2.5"/>
	<rect x="609" y="76.9" pointer-events="all" class="st2" width="1" height="2.5"/>
	<rect x="609" y="81.5" pointer-events="all" class="st2" width="1" height="2.5"/>
	<path pointer-events="all" class="st5" d="M641.5,9.5h-59V27h43.3v17.5h15.7V9.5z"/>
	<path pointer-events="all" class="st5" d="M640.5,121.5h-59V104h43.3V86.5h15.7V121.5z"/>
	<rect x="498.5" y="173.5" pointer-events="all" class="st1" width="10" height="14"/>
	<rect x="282.5" y="182.5" pointer-events="all" class="st2" width="33" height="5"/>
	<path pointer-events="all" class="st3" d="M315.5,182.5c0-18.2-14.8-33-33-33v33"/>
	<rect x="316.5" y="177.5" pointer-events="all" class="st1" width="40" height="10"/>
	<rect x="346.5" y="9.5" pointer-events="all" class="st1" width="10" height="178"/>
	<rect x="214.5" y="47.5" pointer-events="all" class="st2" width="5" height="33"/>
	<path pointer-events="all" class="st3" d="M219.5,47.5c18.2,0,33,14.8,33,33h-33"/>
	<rect x="224.5" y="11.5" pointer-events="all" class="st2" width="44" height="18"/>
	<path pointer-events="all" class="st5" d="M255.5,12.5v8.6c0,3.6-4.7,6.4-10.5,6.4s-10.5-2.9-10.5-6.4v-8.6H255.5z"/>
	<ellipse pointer-events="all" class="st6" cx="245" cy="21.1" rx="7.9" ry="4.3"/>
	<path pointer-events="all" class="st2" d="M245.3,13.8L245.3,13.8c0.6,0,1.1,0.5,1.1,1.1v4.8c0,0.6-0.5,1-1.1,1l0,0
		c-0.6,0-1.1-0.5-1.1-1v-4.8C244.2,14.3,244.7,13.8,245.3,13.8z"/>
	<path pointer-events="all" class="st6" d="M245.3,13.8L245.3,13.8c0.6,0,1.1,0.5,1.1,1.1v2.6c0,0.6-0.5,1-1.1,1l0,0
		c-0.6,0-1.1-0.5-1.1-1v-2.6C244.2,14.3,244.7,13.8,245.3,13.8z"/>
	<rect x="328.5" y="132.5" pointer-events="all" class="st2" width="18" height="44"/>
	<path pointer-events="all" class="st5" d="M345.5,166.5h-8.6c-3.5,0-6.4-4.7-6.4-10.5s2.9-10.5,6.4-10.5h8.6V166.5z"/>
	<ellipse pointer-events="all" class="st6" cx="336.9" cy="156" rx="4.3" ry="7.9"/>
	<path pointer-events="all" class="st2" d="M344.2,156.3L344.2,156.3c0,0.6-0.5,1.1-1.1,1.1h-4.8c-0.6,0-1.1-0.5-1.1-1v0
		c0-0.6,0.5-1,1.1-1h4.8C343.7,155.2,344.2,155.7,344.2,156.3z"/>
	<path pointer-events="all" class="st6" d="M344.2,156.3L344.2,156.3c0,0.6-0.5,1.1-1.1,1.1h-2.6c-0.6,0-1-0.5-1-1v0
		c0-0.6,0.5-1,1-1h2.6C343.7,155.2,344.2,155.7,344.2,156.3z"/>
	<rect x="266.5" y="177.5" pointer-events="all" class="st1" width="16" height="10"/>
	<rect x="218.5" y="142.5" pointer-events="all" class="st1" width="48" height="10"/>
	<rect x="226.5" y="99.5" pointer-events="all" class="st2" width="40" height="40"/>
	<path pointer-events="all" class="st3" d="M226.5,99.5l40,40 M266.5,99.5l-40,40"/>
	<rect x="16.5" y="15.5" pointer-events="all" class="st2" width="56" height="64"/>
	<path pointer-events="all" class="st6" d="M21.1,17.3h18.8c1,0,1.8,0.8,1.8,1.8v10.7c0,1-0.8,1.8-1.8,1.8H21.1
		c-1,0-1.8-0.8-1.8-1.8V19.1C19.3,18.1,20.1,17.3,21.1,17.3z"/>
	<path pointer-events="all" class="st6" d="M49.1,17.3h18.8c1,0,1.8,0.8,1.8,1.8v10.7c0,1-0.8,1.8-1.8,1.8H49.1
		c-1,0-1.8-0.8-1.8-1.8V19.1C47.3,18.1,48.1,17.3,49.1,17.3z"/>
	<rect x="16.5" y="26.2" pointer-events="all" class="st2" width="56" height="8.9"/>
	<rect x="15.5" y="322.5" pointer-events="all" class="st2" width="27" height="66"/>
	<path pointer-events="all" class="st6" d="M38,386.7H20c-1,0-1.8-0.8-1.8-1.8v-11c0-1,0.8-1.8,1.8-1.8H38c1,0,1.8,0.8,1.8,1.8v11
		C39.8,385.9,39,386.7,38,386.7z"/>
	<rect x="15.5" y="368.3" pointer-events="all" class="st2" width="27" height="9.2"/>
	<rect x="193.5" y="322.5" pointer-events="all" class="st2" width="27" height="66"/>
	<path pointer-events="all" class="st6" d="M216,386.7H198c-1,0-1.8-0.8-1.8-1.8v-11c0-1,0.8-1.8,1.8-1.8H216c1,0,1.8,0.8,1.8,1.8
		v11C217.8,385.9,217,386.7,216,386.7z"/>
	<rect x="193.5" y="368.3" pointer-events="all" class="st2" width="27" height="9.2"/>
	<ellipse pointer-events="all" class="st2" cx="242" cy="171.7" rx="6.7" ry="7"/>
	<ellipse pointer-events="all" class="st2" cx="241.6" cy="178" rx="2.4" ry="5.5"/>
	<path pointer-events="all" class="st5" d="M241.8,171.8c0.5,0.4,0.5,1.2-0.1,2.3c-0.6,1.1-1.7,2.4-3,3.5c-2.5,2-5.1,2.9-6,2.1
		c-0.5-0.4-0.5-1.2,0.1-2.3c0.6-1.1,1.7-2.4,3-3.5C238.4,171.9,241,170.9,241.8,171.8z"/>
	<path pointer-events="all" class="st5" d="M229.7,165.5c0.7-1.3,3.9-1,7.5,0.7c1.9,0.9,3.5,2.1,4.4,3.2c1,1.1,1.2,2.1,0.7,2.6
		c-0.7,1.3-3.9,1-7.5-0.7c-1.9-0.9-3.5-2.1-4.4-3.2C229.4,167,229.2,166,229.7,165.5z"/>
	<path pointer-events="all" class="st5" d="M243,170.5c1.1-1.1,4.1-0.2,6.7,2.1c1.4,1.3,2.4,2.7,2.9,4c0.5,1.3,0.4,2.3-0.3,2.8
		c-1.1,1.1-4.1,0.2-6.7-2.1c-1.4-1.3-2.4-2.7-2.9-4S242.3,171,243,170.5z"/>
	<path pointer-events="all" class="st5" d="M253.8,165.8c0.5,0.4,0.3,1.3-0.6,2.4s-2.4,2.3-4.2,3.3c-3.3,1.8-6.4,2.5-7.1,1.5
		c-0.5-0.4-0.3-1.3,0.6-2.4c0.9-1.1,2.4-2.3,4.2-3.3C250,165.5,253.1,164.8,253.8,165.8z"/>
	<path pointer-events="all" class="st5" d="M239.6,160.9c1.2-0.2,2.7,2.3,3.5,5.5c0.4,1.6,0.5,3.3,0.3,4.5c-0.2,1.2-0.6,2-1.2,2.1
		c-1.2,0.2-2.7-2.3-3.5-5.5c-0.4-1.6-0.5-3.3-0.3-4.5C238.5,161.8,239,161,239.6,160.9z"/>
	<path pointer-events="all" class="st5" d="M246,164.3c0.5,0.1,0.7,0.8,0.6,1.8c-0.1,1-0.5,2.3-1.2,3.5c-1.2,2.3-2.9,3.8-3.8,3.4
		c-0.5-0.2-0.7-0.8-0.6-1.8c0.1-1,0.5-2.3,1.2-3.5C243.4,165.5,245.1,164,246,164.3z"/>
	<rect x="72.5" y="184.5" pointer-events="all" class="st1" width="10" height="13"/>
	<rect x="72.5" y="232.5" pointer-events="all" class="st1" width="10" height="10"/>
	<rect x="77.5" y="198.5" pointer-events="all" class="st2" width="5" height="33"/>
	<path pointer-events="all" class="st3" d="M77.5,198.5c-18.2,0-33,14.8-33,33h33"/>
	<rect x="275.5" y="251.5" pointer-events="all" class="st2" width="71" height="18"/>
	<path pointer-events="all" class="st3" d="M275.5,266.5c0,0.8,0.9,1.5,2.1,1.5c1.1,0,2.1-0.7,2.1-1.5v-10.2c-1.2,0.9-2.9,0.9-4.1,0
		V266.5z M280.2,266.5c0,0.8,0.9,1.5,2.1,1.5c1.2,0,2.1-0.7,2.1-1.5v-10.2c-1.2,0.9-2.9,0.9-4.1,0V266.5z M285,266.5
		c0,0.8,0.9,1.5,2.1,1.5c1.1,0,2.1-0.7,2.1-1.5v-10.2c-1.2,0.9-2.9,0.9-4.1,0V266.5z M289.7,266.5c0,0.8,0.9,1.5,2.1,1.5
		c1.1,0,2.1-0.7,2.1-1.5v-10.2c-1.2,0.9-2.9,0.9-4.1,0V266.5z M294.4,266.5c0,0.8,0.9,1.5,2.1,1.5c1.1,0,2.1-0.7,2.1-1.5v-10.2
		c-1.2,0.9-2.9,0.9-4.1,0V266.5z M299.2,266.5c0,0.8,0.9,1.5,2.1,1.5c1.1,0,2.1-0.7,2.1-1.5v-10.2c-1.2,0.9-2.9,0.9-4.1,0V266.5z
		 M303.9,266.5c0,0.8,0.9,1.5,2.1,1.5c1.1,0,2.1-0.7,2.1-1.5v-10.2c-1.2,0.9-2.9,0.9-4.1,0V266.5z M308.6,266.5
		c0,0.8,0.9,1.5,2.1,1.5c1.1,0,2.1-0.7,2.1-1.5v-10.2c-1.2,0.9-2.9,0.9-4.1,0V266.5z M313.4,266.5c0,0.8,0.9,1.5,2.1,1.5
		c1.1,0,2.1-0.7,2.1-1.5v-10.2c-1.2,0.9-2.9,0.9-4.1,0V266.5z M318.1,266.5c0,0.8,0.9,1.5,2.1,1.5c1.1,0,2.1-0.7,2.1-1.5v-10.2
		c-1.2,0.9-2.9,0.9-4.1,0V266.5z M322.8,266.5c0,0.8,0.9,1.5,2.1,1.5c1.1,0,2.1-0.7,2.1-1.5v-10.2c-1.2,0.9-2.9,0.9-4.1,0V266.5z
		 M327.6,266.5c0,0.8,0.9,1.5,2.1,1.5c1.1,0,2.1-0.7,2.1-1.5v-10.2c-1.2,0.9-2.9,0.9-4.1,0V266.5z M337.5,254.3l-3.5,12.1l7.9,2.4
		l3.5-12.1L337.5,254.3z"/>
	<rect x="157" y="320" pointer-events="all" class="st2" width="18" height="71"/>
	<path pointer-events="all" class="st3" d="M160,320c-0.8,0-1.5,0.9-1.5,2.1s0.7,2.1,1.5,2.1h10.2c-0.9-1.2-0.9-2.9,0-4.1H160z
		 M160,324.7c-0.8,0-1.5,0.9-1.5,2.1c0,1.1,0.7,2.1,1.5,2.1h10.2c-0.9-1.2-0.9-2.9,0-4.1H160z M160,329.5c-0.8,0-1.5,0.9-1.5,2.1
		c0,1.1,0.7,2.1,1.5,2.1h10.2c-0.9-1.2-0.9-2.9,0-4.1H160z M160,334.2c-0.8,0-1.5,0.9-1.5,2.1c0,1.1,0.7,2.1,1.5,2.1h10.2
		c-0.9-1.2-0.9-2.9,0-4.1H160z M160,338.9c-0.8,0-1.5,0.9-1.5,2.1c0,1.1,0.7,2.1,1.5,2.1h10.2c-0.9-1.2-0.9-2.9,0-4.2H160z
		 M160,343.7c-0.8,0-1.5,0.9-1.5,2.1c0,1.1,0.7,2.1,1.5,2.1h10.2c-0.9-1.2-0.9-2.9,0-4.1H160z M160,348.4c-0.8,0-1.5,0.9-1.5,2.1
		c0,1.1,0.7,2.1,1.5,2.1h10.2c-0.9-1.2-0.9-2.9,0-4.1H160z M160,353.1c-0.8,0-1.5,0.9-1.5,2.1c0,1.1,0.7,2.1,1.5,2.1h10.2
		c-0.9-1.2-0.9-2.9,0-4.1H160z M160,357.9c-0.8,0-1.5,0.9-1.5,2.1c0,1.1,0.7,2.1,1.5,2.1h10.2c-0.9-1.2-0.9-2.9,0-4.1H160z
		 M160,362.6c-0.8,0-1.5,0.9-1.5,2.1c0,1.1,0.7,2.1,1.5,2.1h10.2c-0.9-1.2-0.9-2.9,0-4.1H160z M160,367.3c-0.8,0-1.5,0.9-1.5,2.1
		c0,1.2,0.7,2.1,1.5,2.1h10.2c-0.9-1.2-0.9-2.9,0-4.1H160z M160,372.1c-0.8,0-1.5,0.9-1.5,2.1c0,1.1,0.7,2.1,1.5,2.1h10.2
		c-0.9-1.2-0.9-2.9,0-4.1H160z M172.2,382l-12.1-3.5l-2.4,8l12.1,3.5L172.2,382z"/>
	<path pointer-events="all" class="st5" d="M189.6,145.4l7.9,5.9c1.2,0.8,1.8,2.3,1.5,3.7c-2.5,3.4-5.4,6.5-8.8,9
		c-1.4,0.3-2.9-0.2-3.8-1.4l-6.1-7.7c-0.6-0.9-0.4-2.3,0.5-3.5l5.4-5.5C187.3,145.1,188.7,144.8,189.6,145.4z"/>
	<path pointer-events="all" class="st5" d="M187.8,144.1c0.3-0.2,0.8,0,0.9,0.3c0.2,0.3,0.1,0.8-0.2,0.9c-3.5,2.2-6.4,5.2-8.5,8.8
		c-0.2,0.1-0.5,0.1-0.8,0c-0.2-0.1-0.4-0.4-0.5-0.7C180.9,149.6,184,146.4,187.8,144.1"/>
	<path pointer-events="all" class="st5" d="M213.5,177.5h-61v-16.3h24.4l20.3-20.3v-24.4h16.3V177.5z"/>
	<rect x="498.5" y="191.5" pointer-events="all" class="st2" width="142" height="22"/>
	<rect x="628.5" y="216.5" pointer-events="all" class="st2" width="4" height="56"/>
	<path pointer-events="all" class="st5" d="M632.5,224.5l3.2,5.6c0.5,0.7,0.7,1.6,0.8,2.4v24c-0.1,0.8-0.3,1.7-0.8,2.4l-3.2,5.6
		V224.5z"/>
	<path pointer-events="all" class="st3" d="M635.7,239.7h-3.2 M635.7,242.1h-3.2 M635.7,244.5h-3.2 M635.7,249.3h-3.2 M635.7,246.9
		h-3.2"/>
</g>
</svg>
