<svg id="Ebene_1" data-name="Ebene 1" xmlns="http://www.w3.org/2000/svg" viewBox="0 0 408.77 408.62"><defs><style>.cls-1{fill:#deb887;}</style></defs><path class="cls-1" d="M408.77,189.13v31.13c-1,.6-.74,1.62-.83,2.51-1.89,19.8-5.79,39.19-13.71,57.48C363.57,351.11,310.38,393.53,234,406.43c-4.79.81-9.73.6-14.39,2.19H188.48c-.72-1.11-1.9-.72-2.9-.84a212,212,0,0,1-25.18-4C98.33,389,52,353.55,22.54,297c-21.32-40.87-27.19-84.45-19-129.72A198,198,0,0,1,60.31,59.61c36-35.54,79.39-55.33,130-59,30.2-2.2,59.63,1.64,87.53,13.18q108.72,45,128.78,161.37C407.43,179.8,407.2,184.6,408.77,189.13Zm-149.24,41.5h-4.41q-32.72.08-65.42.13c-21.54,0-43.08.1-64.62,0-2.93,0-4,.68-3.84,3.75.24,6.37.3,12.77,0,19.14-.19,3.76.78,4.92,4.74,4.9,42.81-.11,85.63,0,128.44.05,1.39,0,2.85-.39,4.48.48-.71.76-1.3,1.44-1.92,2.07-8.46,8.47-16.88,17-25.4,25.37-1.7,1.67-2.32,2.76-.22,4.74,5.23,4.91,10.27,10,15.25,15.21,1.63,1.69,2.63,1.93,4.44.11q29.81-30,59.79-59.81c1.49-1.49,1.88-2.44.18-4.14q-30.12-30-60.08-60.08c-1.64-1.65-2.62-1.56-4.15,0-3.75,4-7.67,7.75-11.51,11.61-6.08,6.11-6.08,6.11.09,12.28ZM155.22,134.72c.95-1,1.8-2,2.7-2.91,8.28-8.28,16.52-16.59,24.88-24.79,1.68-1.65,2-2.63.1-4.41-5.3-5-10.42-10.27-15.53-15.5-1.24-1.27-2.06-1.61-3.5-.18q-30.12,30.25-60.37,60.4c-1.37,1.36-1.34,2.2,0,3.53q30.1,30,60.1,60.12c1.77,1.79,2.72,1.15,4.12-.28,4.84-4.95,9.67-9.91,14.71-14.64,2.13-2,2.29-3.16.08-5.3-8.51-8.23-16.81-16.67-25.15-25.08-.73-.74-2.13-1.22-1.75-2.84h48.32q42.9,0,85.8,0c1.87,0,3.68.37,3.61-2.66-.18-7.44-.13-14.9,0-22.34,0-2.4-1-2.92-3.13-2.85-3.32.12-6.65,0-10,0q-60.26.15-120.5.27C158.32,135.32,156.83,135.77,155.22,134.72Z"/><path d="M259.53,230.63l-24.17-24.14c-6.17-6.17-6.17-6.17-.09-12.28,3.84-3.86,7.76-7.66,11.51-11.61,1.53-1.61,2.51-1.7,4.15,0q30,30.12,60.08,60.08c1.7,1.7,1.31,2.65-.18,4.14q-30,29.84-59.79,59.81c-1.81,1.82-2.81,1.58-4.44-.11-5-5.17-10-10.3-15.25-15.21-2.1-2-1.48-3.07.22-4.74,8.52-8.4,16.94-16.9,25.4-25.37.62-.63,1.21-1.31,1.92-2.07-1.63-.87-3.09-.47-4.48-.48-42.81-.06-85.63-.16-128.44-.05-4,0-4.93-1.14-4.74-4.9.31-6.37.25-12.77,0-19.14-.11-3.07.91-3.77,3.84-3.75,21.54.1,43.08,0,64.62,0q32.72,0,65.42-.13Z"/><path d="M155.22,134.72c1.61,1.05,3.1.6,4.5.6q60.25-.1,120.5-.27c3.32,0,6.65.09,10,0,2.11-.07,3.17.45,3.13,2.85-.11,7.44-.16,14.9,0,22.34.07,3-1.74,2.66-3.61,2.66q-42.9,0-85.8,0H155.61c-.38,1.62,1,2.1,1.75,2.84,8.34,8.41,16.64,16.85,25.15,25.08,2.21,2.14,2.05,3.3-.08,5.3-5,4.73-9.87,9.69-14.71,14.64-1.4,1.43-2.35,2.07-4.12.28q-30-30.14-60.1-60.12c-1.34-1.33-1.37-2.17,0-3.53q30.24-30.14,60.37-60.4c1.44-1.43,2.26-1.09,3.5.18,5.11,5.23,10.23,10.45,15.53,15.5,1.87,1.78,1.58,2.76-.1,4.41-8.36,8.2-16.6,16.51-24.88,24.79C157,132.72,156.17,133.69,155.22,134.72Z"/></svg>